<svg width="55" height="66" viewBox="0 0 55 66" fill="none" xmlns="http://www.w3.org/2000/svg">
<path d="M3.20798 46.0884C2.57777 46.0884 2.2249 46.5259 2.14938 47.4009L2.13766 47.6431C2.58037 47.6119 2.86683 47.5963 2.99704 47.5963C3.4111 47.5963 3.61813 47.7265 3.61813 47.9869C3.61813 48.177 3.51657 48.2903 3.31345 48.3267C3.2249 48.3423 3.12074 48.3489 3.00095 48.3463C2.88376 48.341 2.58428 48.358 2.10251 48.397L2.07126 49.2877C2.07126 49.4491 2.07647 49.6913 2.08688 50.0142C2.0973 50.3371 2.10251 50.578 2.10251 50.7369C2.10251 51.2317 2.07386 51.6171 2.01657 51.8931C1.9723 52.1015 1.85121 52.2056 1.65329 52.2056C1.54652 52.2056 1.45537 52.1705 1.37985 52.1002C1.30433 52.0325 1.26657 51.9465 1.26657 51.8423C1.26657 51.8215 1.26918 51.7955 1.27438 51.7642C1.32907 51.4257 1.35641 51.0572 1.35641 50.6588L1.3447 49.5923V48.4595C1.01918 48.4856 0.813446 48.4986 0.727509 48.4986C0.464488 48.4986 0.332977 48.3723 0.332977 48.1197C0.332977 47.8619 0.560842 47.7265 1.01657 47.7134L1.39157 47.7017C1.39938 47.5559 1.41891 47.358 1.45016 47.108C1.51787 46.5298 1.66371 46.1041 1.88766 45.8306C2.1585 45.4999 2.58168 45.3345 3.1572 45.3345C3.52959 45.3345 3.71579 45.4608 3.71579 45.7134C3.71579 45.9634 3.54652 46.0884 3.20798 46.0884ZM7.69235 48.6939C7.67412 49.0194 7.54391 49.1822 7.30173 49.1822C7.07777 49.1822 6.96579 49.0533 6.96579 48.7955C6.96579 48.746 6.96188 48.6548 6.95407 48.522L6.94235 48.1939C6.53089 48.2434 6.20147 48.3593 5.95407 48.5416C5.7223 48.7108 5.52959 48.966 5.37595 49.3072L5.38376 51.4478C5.38376 51.7108 5.25485 51.8423 4.99704 51.8423C4.76787 51.8423 4.65329 51.7108 4.65329 51.4478V48.7056C4.65329 48.6197 4.65589 48.4908 4.6611 48.3189C4.66891 48.147 4.67282 48.0181 4.67282 47.9322C4.67282 47.6692 4.7874 47.5377 5.01657 47.5377C5.27178 47.5377 5.40069 47.7538 5.40329 48.1861C5.90329 47.7043 6.45798 47.4634 7.06735 47.4634C7.27829 47.4634 7.43584 47.5429 7.54001 47.7017C7.64418 47.8606 7.69626 48.1002 7.69626 48.4205C7.69626 48.5559 7.69496 48.647 7.69235 48.6939ZM9.96188 51.8111C9.52438 51.8111 9.14808 51.6496 8.83298 51.3267C8.48141 50.9673 8.29652 50.4843 8.27829 49.8775C8.26266 49.289 8.4111 48.7707 8.7236 48.3228C9.08819 47.7942 9.596 47.5298 10.247 47.5298C10.7679 47.5298 11.1624 47.7681 11.4306 48.2447C11.6442 48.6301 11.747 49.0936 11.7392 49.6353C11.7314 50.2134 11.5804 50.7069 11.2861 51.1158C10.9528 51.5793 10.5114 51.8111 9.96188 51.8111ZM10.1963 48.3228C9.81345 48.3202 9.51527 48.5025 9.30173 48.8697C9.13246 49.164 9.04782 49.4999 9.04782 49.8775C9.04782 50.2551 9.15069 50.5494 9.35641 50.7603C9.52829 50.9348 9.73011 51.022 9.96188 51.022C10.2327 51.022 10.4658 50.9231 10.6611 50.7252C10.8825 50.5064 10.9996 50.2108 11.0127 49.8384C11.0491 48.8306 10.777 48.3254 10.1963 48.3228ZM15.7041 51.858C15.4801 51.858 15.3538 51.7356 15.3252 51.4908L15.2158 50.6353C15.1793 50.3306 15.1611 50.0455 15.1611 49.7798C15.1611 49.7069 15.165 49.5832 15.1728 49.4088C15.1832 49.2343 15.1884 49.1106 15.1884 49.0377C15.1884 48.4752 15.0843 48.1939 14.8759 48.1939C14.5843 48.1939 14.3056 48.3671 14.04 48.7134C13.8004 49.0285 13.6129 49.427 13.4775 49.9088C13.4723 50.0103 13.4606 50.1379 13.4424 50.2916C13.4267 50.4218 13.4189 50.5481 13.4189 50.6705C13.4189 50.7486 13.4267 50.8658 13.4424 51.022C13.458 51.1783 13.4658 51.2955 13.4658 51.3736C13.4658 51.4908 13.4293 51.5858 13.3564 51.6588C13.2861 51.7317 13.195 51.7681 13.083 51.7681C12.9684 51.7681 12.8759 51.7317 12.8056 51.6588C12.7353 51.5858 12.7002 51.4908 12.7002 51.3736C12.7002 51.2955 12.6911 51.1783 12.6728 51.022C12.6572 50.8658 12.6494 50.7486 12.6494 50.6705C12.6494 50.4022 12.6676 50.0311 12.7041 49.5572C12.7431 49.0806 12.7627 48.7082 12.7627 48.44C12.7627 48.3567 12.7575 48.233 12.747 48.0689C12.7392 47.9048 12.7353 47.7811 12.7353 47.6978C12.7353 47.5858 12.7718 47.4947 12.8447 47.4244C12.9202 47.3515 13.0127 47.315 13.122 47.315C13.3616 47.315 13.4931 47.4843 13.5166 47.8228L13.5283 48.2798C13.9658 47.6965 14.415 47.4048 14.8759 47.4048C15.2926 47.4048 15.583 47.5884 15.747 47.9556C15.859 48.2004 15.9202 48.5624 15.9306 49.0416V49.4361L15.9267 49.7994C15.9267 50.0155 15.9541 50.2955 16.0088 50.6392C16.0661 50.9804 16.0947 51.2577 16.0947 51.4713C16.0947 51.5858 16.0569 51.6783 15.9814 51.7486C15.9085 51.8215 15.8161 51.858 15.7041 51.858ZM19.5088 48.2525C19.4541 48.2525 19.389 48.2499 19.3134 48.2447C19.2405 48.2395 19.1767 48.2369 19.122 48.2369C19.0621 48.2369 18.8851 48.2564 18.5908 48.2955L18.665 50.6041L18.6689 50.7759L18.6728 50.9752C18.6832 51.5455 18.5465 51.8306 18.2627 51.8306C18.1585 51.8306 18.0674 51.7968 17.9892 51.7291C17.9137 51.6614 17.8759 51.5767 17.8759 51.4752C17.8759 51.3762 17.8799 51.2278 17.8877 51.0298C17.8955 50.8319 17.8994 50.6835 17.8994 50.5845L17.8213 48.3033C17.6312 48.2955 17.3421 48.2733 16.9541 48.2369C16.7223 48.2056 16.6064 48.0767 16.6064 47.8502C16.6064 47.7356 16.6416 47.6405 16.7119 47.565C16.7822 47.4895 16.872 47.4517 16.9814 47.4517L17.8017 47.5181C17.8017 47.3853 17.7952 47.2082 17.7822 46.9869C17.7718 46.7629 17.7666 46.6015 17.7666 46.5025C17.7666 46.3931 17.8043 46.3033 17.8799 46.233C17.9554 46.1601 18.0478 46.1236 18.1572 46.1236C18.3916 46.1236 18.5283 46.315 18.5674 46.6978C18.5752 46.7942 18.5791 46.9101 18.5791 47.0455L18.5713 47.272L18.5674 47.5142C18.8903 47.4726 19.0752 47.4517 19.122 47.4517C19.3929 47.4517 19.57 47.4647 19.6533 47.4908C19.8121 47.5429 19.8916 47.6653 19.8916 47.858C19.8916 47.9726 19.8551 48.0676 19.7822 48.1431C19.7119 48.216 19.6207 48.2525 19.5088 48.2525ZM22.4931 51.7603C21.9046 51.7603 21.428 51.6132 21.0634 51.3189C20.665 50.9934 20.4658 50.5377 20.4658 49.9517C20.4658 49.2746 20.6299 48.7069 20.958 48.2486C21.3147 47.7486 21.7913 47.4986 22.3877 47.4986C22.82 47.4986 23.1728 47.5715 23.4463 47.7173C23.7822 47.897 23.9502 48.1731 23.9502 48.5455C23.9502 48.8059 23.803 49.0429 23.5088 49.2564C23.3786 49.3502 23.1025 49.496 22.6806 49.6939L21.1884 50.4009C21.3343 50.6171 21.5153 50.7798 21.7314 50.8892C21.9502 50.9986 22.2041 51.0533 22.4931 51.0533C22.6728 51.0533 22.8838 51.0194 23.1259 50.9517C23.4332 50.8658 23.6312 50.7538 23.7197 50.6158C23.8082 50.4752 23.9033 50.4048 24.0049 50.4048C24.096 50.4048 24.1767 50.44 24.247 50.5103C24.32 50.578 24.3564 50.6575 24.3564 50.7486C24.3564 51.0377 24.1233 51.2864 23.6572 51.4947C23.2588 51.6718 22.8707 51.7603 22.4931 51.7603ZM22.3877 48.2017C22.07 48.2017 21.8056 48.3254 21.5947 48.5728C21.3838 48.8176 21.2262 49.1874 21.122 49.6822L22.3213 49.1119C22.7926 48.8827 23.1286 48.6835 23.3291 48.5142C23.1051 48.3059 22.7913 48.2017 22.3877 48.2017ZM28.0478 51.858C27.8239 51.858 27.6976 51.7356 27.6689 51.4908L27.5595 50.6353C27.5231 50.3306 27.5049 50.0455 27.5049 49.7798C27.5049 49.7069 27.5088 49.5832 27.5166 49.4088C27.527 49.2343 27.5322 49.1106 27.5322 49.0377C27.5322 48.4752 27.428 48.1939 27.2197 48.1939C26.928 48.1939 26.6494 48.3671 26.3838 48.7134C26.1442 49.0285 25.9567 49.427 25.8213 49.9088C25.8161 50.0103 25.8043 50.1379 25.7861 50.2916C25.7705 50.4218 25.7627 50.5481 25.7627 50.6705C25.7627 50.7486 25.7705 50.8658 25.7861 51.022C25.8017 51.1783 25.8095 51.2955 25.8095 51.3736C25.8095 51.4908 25.7731 51.5858 25.7002 51.6588C25.6299 51.7317 25.5387 51.7681 25.4267 51.7681C25.3121 51.7681 25.2197 51.7317 25.1494 51.6588C25.0791 51.5858 25.0439 51.4908 25.0439 51.3736C25.0439 51.2955 25.0348 51.1783 25.0166 51.022C25.0009 50.8658 24.9931 50.7486 24.9931 50.6705C24.9931 50.4022 25.0114 50.0311 25.0478 49.5572C25.0869 49.0806 25.1064 48.7082 25.1064 48.44C25.1064 48.3567 25.1012 48.233 25.0908 48.0689C25.083 47.9048 25.0791 47.7811 25.0791 47.6978C25.0791 47.5858 25.1155 47.4947 25.1884 47.4244C25.264 47.3515 25.3564 47.315 25.4658 47.315C25.7054 47.315 25.8369 47.4843 25.8603 47.8228L25.872 48.2798C26.3095 47.6965 26.7588 47.4048 27.2197 47.4048C27.6364 47.4048 27.9267 47.5884 28.0908 47.9556C28.2028 48.2004 28.264 48.5624 28.2744 49.0416V49.4361L28.2705 49.7994C28.2705 50.0155 28.2978 50.2955 28.3525 50.6392C28.4098 50.9804 28.4384 51.2577 28.4384 51.4713C28.4384 51.5858 28.4007 51.6783 28.3252 51.7486C28.2522 51.8215 28.1598 51.858 28.0478 51.858ZM32.8369 48.1314C32.8056 48.5142 32.79 48.897 32.79 49.2798C32.79 50.147 32.8304 50.802 32.9111 51.2447C32.9163 51.2811 32.9189 51.3111 32.9189 51.3345C32.9189 51.4387 32.8825 51.5246 32.8095 51.5923C32.7366 51.6601 32.652 51.6939 32.5556 51.6939C32.3942 51.6939 32.2757 51.5767 32.2002 51.3423C32.0127 51.4804 31.8174 51.5845 31.6142 51.6548C31.4137 51.7252 31.2041 51.7603 30.9853 51.7603C30.4463 51.7603 29.9996 51.5806 29.6455 51.2213C29.2809 50.8541 29.0986 50.3827 29.0986 49.8072C29.0986 49.1119 29.2822 48.5546 29.6494 48.1353C30.0192 47.716 30.4983 47.5064 31.0869 47.5064C31.389 47.5064 31.622 47.5533 31.7861 47.647L32.1533 47.9166C32.1897 46.8202 32.2327 46.0819 32.2822 45.7017C32.3161 45.47 32.4345 45.3541 32.6377 45.3541C32.8746 45.3541 32.9931 45.4804 32.9931 45.733C32.9931 46.095 32.9411 46.8944 32.8369 48.1314ZM31.1025 48.233C30.665 48.233 30.3369 48.3632 30.1181 48.6236C29.8994 48.8814 29.79 49.2707 29.79 49.7916C29.79 50.1275 29.9085 50.4166 30.1455 50.6588C30.3851 50.9009 30.665 51.022 30.9853 51.022C31.2041 51.022 31.389 50.9817 31.54 50.9009C31.6286 50.8541 31.7731 50.746 31.9736 50.5767C32.0127 50.5429 32.0504 50.5025 32.0869 50.4556L32.0752 49.7798L32.0791 49.3267L32.0869 48.8658C31.9879 48.6548 31.8564 48.4973 31.6924 48.3931C31.5283 48.2864 31.3317 48.233 31.1025 48.233ZM4.18063 59.1314C4.14938 59.5142 4.13376 59.897 4.13376 60.2798C4.13376 61.147 4.17412 61.802 4.25485 62.2447C4.26006 62.2811 4.26266 62.3111 4.26266 62.3345C4.26266 62.4387 4.22621 62.5246 4.15329 62.5923C4.08037 62.6601 3.99574 62.6939 3.89938 62.6939C3.73793 62.6939 3.61944 62.5767 3.54391 62.3423C3.35641 62.4804 3.1611 62.5845 2.95798 62.6548C2.75746 62.7252 2.54782 62.7603 2.32907 62.7603C1.79001 62.7603 1.34339 62.5806 0.989227 62.2213C0.624644 61.8541 0.442352 61.3827 0.442352 60.8072C0.442352 60.1119 0.625946 59.5546 0.993134 59.1353C1.36293 58.716 1.84209 58.5064 2.43063 58.5064C2.73272 58.5064 2.96579 58.5533 3.12985 58.647L3.49704 58.9166C3.5335 57.8202 3.57647 57.0819 3.62595 56.7017C3.6598 56.47 3.77829 56.3541 3.98141 56.3541C4.21839 56.3541 4.33688 56.4804 4.33688 56.733C4.33688 57.095 4.2848 57.8944 4.18063 59.1314ZM2.44626 59.233C2.00876 59.233 1.68063 59.3632 1.46188 59.6236C1.24313 59.8814 1.13376 60.2707 1.13376 60.7916C1.13376 61.1275 1.25225 61.4166 1.48923 61.6588C1.72881 61.9009 2.00876 62.022 2.32907 62.022C2.54782 62.022 2.73272 61.9817 2.88376 61.9009C2.9723 61.8541 3.11683 61.746 3.31735 61.5767C3.35641 61.5429 3.39418 61.5025 3.43063 61.4556L3.41891 60.7798L3.42282 60.3267L3.43063 59.8658C3.33168 59.6548 3.20016 59.4973 3.0361 59.3931C2.87204 59.2864 2.67543 59.233 2.44626 59.233ZM7.11032 62.7603C6.52178 62.7603 6.04522 62.6132 5.68063 62.3189C5.2822 61.9934 5.08298 61.5377 5.08298 60.9517C5.08298 60.2746 5.24704 59.7069 5.57516 59.2486C5.93194 58.7486 6.4085 58.4986 7.00485 58.4986C7.43714 58.4986 7.79001 58.5715 8.06345 58.7173C8.39938 58.897 8.56735 59.1731 8.56735 59.5455C8.56735 59.8059 8.42022 60.0429 8.12595 60.2564C7.99574 60.3502 7.7197 60.496 7.29782 60.6939L5.80563 61.4009C5.95147 61.6171 6.13246 61.7798 6.3486 61.8892C6.56735 61.9986 6.82126 62.0533 7.11032 62.0533C7.29001 62.0533 7.50095 62.0194 7.74313 61.9517C8.05043 61.8658 8.24834 61.7538 8.33688 61.6158C8.42543 61.4752 8.52048 61.4048 8.62204 61.4048C8.71319 61.4048 8.79391 61.44 8.86423 61.5103C8.93714 61.578 8.9736 61.6575 8.9736 61.7486C8.9736 62.0377 8.74053 62.2864 8.27438 62.4947C7.87595 62.6718 7.48793 62.7603 7.11032 62.7603ZM7.00485 59.2017C6.68714 59.2017 6.42282 59.3254 6.21188 59.5728C6.00095 59.8176 5.84339 60.1874 5.73923 60.6822L6.93845 60.1119C7.4098 59.8827 7.74574 59.6835 7.94626 59.5142C7.7223 59.3059 7.4085 59.2017 7.00485 59.2017ZM11.4697 62.3775C11.4619 62.6171 11.3434 62.7369 11.1142 62.7369C10.9241 62.7369 10.7861 62.6249 10.7002 62.4009L10.1025 60.815L9.4072 59.022C9.38115 58.9543 9.36813 58.8944 9.36813 58.8423C9.36813 58.7356 9.4085 58.6444 9.48923 58.5689C9.56996 58.4934 9.66371 58.4556 9.77048 58.4556C9.92673 58.4556 10.0387 58.5351 10.1064 58.6939L11.0986 61.4244C11.2939 61.0077 11.54 60.4035 11.8369 59.6119C11.9072 59.4035 12.0179 59.1093 12.1689 58.7291C12.2496 58.5624 12.3642 58.4791 12.5127 58.4791C12.6194 58.4791 12.7132 58.5168 12.7939 58.5923C12.8746 58.6679 12.915 58.7577 12.915 58.8619C12.915 58.9608 12.7002 59.5181 12.2705 60.5338L11.4697 62.3775ZM15.3838 62.7603C14.7952 62.7603 14.3187 62.6132 13.9541 62.3189C13.5556 61.9934 13.3564 61.5377 13.3564 60.9517C13.3564 60.2746 13.5205 59.7069 13.8486 59.2486C14.2054 58.7486 14.6819 58.4986 15.2783 58.4986C15.7106 58.4986 16.0634 58.5715 16.3369 58.7173C16.6728 58.897 16.8408 59.1731 16.8408 59.5455C16.8408 59.8059 16.6937 60.0429 16.3994 60.2564C16.2692 60.3502 15.9931 60.496 15.5713 60.6939L14.0791 61.4009C14.2249 61.6171 14.4059 61.7798 14.622 61.8892C14.8408 61.9986 15.0947 62.0533 15.3838 62.0533C15.5634 62.0533 15.7744 62.0194 16.0166 61.9517C16.3239 61.8658 16.5218 61.7538 16.6103 61.6158C16.6989 61.4752 16.7939 61.4048 16.8955 61.4048C16.9866 61.4048 17.0674 61.44 17.1377 61.5103C17.2106 61.578 17.247 61.6575 17.247 61.7486C17.247 62.0377 17.014 62.2864 16.5478 62.4947C16.1494 62.6718 15.7614 62.7603 15.3838 62.7603ZM15.2783 59.2017C14.9606 59.2017 14.6963 59.3254 14.4853 59.5728C14.2744 59.8176 14.1168 60.1874 14.0127 60.6822L15.2119 60.1119C15.6832 59.8827 16.0192 59.6835 16.2197 59.5142C15.9957 59.3059 15.6819 59.2017 15.2783 59.2017ZM18.9345 59.5103L18.8759 61.4517C18.8759 61.6575 18.8655 61.9595 18.8447 62.358C18.8187 62.6184 18.6911 62.7486 18.4619 62.7486C18.2067 62.7486 18.0791 62.6158 18.0791 62.3502C18.0791 62.0351 18.0934 61.5624 18.122 60.9322C18.1507 60.2994 18.165 59.8254 18.165 59.5103C18.165 59.0989 18.1715 58.6288 18.1845 58.1002C18.1976 57.5689 18.2041 57.0976 18.2041 56.6861C18.2041 56.4257 18.3317 56.2955 18.5869 56.2955C18.8447 56.2955 18.9736 56.4257 18.9736 56.6861C18.9736 57.0976 18.9671 57.5689 18.9541 58.1002C18.9411 58.6288 18.9345 59.0989 18.9345 59.5103ZM21.6025 62.8111C21.165 62.8111 20.7887 62.6496 20.4736 62.3267C20.122 61.9673 19.9371 61.4843 19.9189 60.8775C19.9033 60.289 20.0517 59.7707 20.3642 59.3228C20.7288 58.7942 21.2366 58.5298 21.8877 58.5298C22.4085 58.5298 22.803 58.7681 23.0713 59.2447C23.2848 59.6301 23.3877 60.0936 23.3799 60.6353C23.372 61.2134 23.221 61.7069 22.9267 62.1158C22.5934 62.5793 22.152 62.8111 21.6025 62.8111ZM21.8369 59.3228C21.4541 59.3202 21.1559 59.5025 20.9424 59.8697C20.7731 60.164 20.6884 60.4999 20.6884 60.8775C20.6884 61.2551 20.7913 61.5494 20.997 61.7603C21.1689 61.9348 21.3707 62.022 21.6025 62.022C21.8733 62.022 22.1064 61.9231 22.3017 61.7252C22.5231 61.5064 22.6403 61.2108 22.6533 60.8384C22.6897 59.8306 22.4176 59.3254 21.8369 59.3228ZM26.0088 62.7173C25.7483 62.7173 25.4619 62.6757 25.1494 62.5923L25.1416 64.4595C25.1416 64.5741 25.1051 64.6679 25.0322 64.7408C24.9619 64.8137 24.8707 64.8502 24.7588 64.8502C24.6468 64.8502 24.5543 64.8137 24.4814 64.7408C24.4111 64.6679 24.3759 64.5741 24.3759 64.4595L24.3877 62.897V61.3384C24.3799 60.7681 24.3603 60.2486 24.3291 59.7798L24.2705 58.9869C24.2705 58.802 24.3043 58.6457 24.372 58.5181C24.4502 58.3645 24.5634 58.2877 24.7119 58.2877C24.8134 58.2877 24.8981 58.3241 24.9658 58.397C25.0361 58.4673 25.0713 58.5546 25.0713 58.6588C25.0713 58.6822 25.0674 58.7252 25.0595 58.7877C25.0465 58.8684 25.0374 58.9426 25.0322 59.0103C25.2562 58.8567 25.4723 58.7421 25.6806 58.6666C25.889 58.5884 26.0882 58.5494 26.2783 58.5494C26.8121 58.5494 27.2028 58.7864 27.4502 59.2603C27.6455 59.6353 27.7431 60.1314 27.7431 60.7486C27.7431 61.3111 27.5921 61.7746 27.29 62.1392C26.9697 62.5246 26.5426 62.7173 26.0088 62.7173ZM26.2783 59.3306C26.0387 59.3306 25.8226 59.384 25.6299 59.4908C25.4918 59.5663 25.3174 59.7043 25.1064 59.9048C25.1403 60.496 25.1572 61.1171 25.1572 61.7681C25.4411 61.8775 25.7249 61.9322 26.0088 61.9322C26.3343 61.9322 26.583 61.8111 26.7549 61.5689C26.9033 61.358 26.9775 61.0845 26.9775 60.7486C26.9775 60.2746 26.9189 59.9205 26.8017 59.6861C26.6871 59.4491 26.5127 59.3306 26.2783 59.3306ZM30.4541 62.7603C29.8655 62.7603 29.389 62.6132 29.0244 62.3189C28.6259 61.9934 28.4267 61.5377 28.4267 60.9517C28.4267 60.2746 28.5908 59.7069 28.9189 59.2486C29.2757 58.7486 29.7522 58.4986 30.3486 58.4986C30.7809 58.4986 31.1338 58.5715 31.4072 58.7173C31.7431 58.897 31.9111 59.1731 31.9111 59.5455C31.9111 59.8059 31.764 60.0429 31.4697 60.2564C31.3395 60.3502 31.0634 60.496 30.6416 60.6939L29.1494 61.4009C29.2952 61.6171 29.4762 61.7798 29.6924 61.8892C29.9111 61.9986 30.165 62.0533 30.4541 62.0533C30.6338 62.0533 30.8447 62.0194 31.0869 61.9517C31.3942 61.8658 31.5921 61.7538 31.6806 61.6158C31.7692 61.4752 31.8642 61.4048 31.9658 61.4048C32.0569 61.4048 32.1377 61.44 32.208 61.5103C32.2809 61.578 32.3174 61.6575 32.3174 61.7486C32.3174 62.0377 32.0843 62.2864 31.6181 62.4947C31.2197 62.6718 30.8317 62.7603 30.4541 62.7603ZM30.3486 59.2017C30.0309 59.2017 29.7666 59.3254 29.5556 59.5728C29.3447 59.8176 29.1871 60.1874 29.083 60.6822L30.2822 60.1119C30.7536 59.8827 31.0895 59.6835 31.29 59.5142C31.0661 59.3059 30.7522 59.2017 30.3486 59.2017ZM36.0517 59.6939C36.0335 60.0194 35.9033 60.1822 35.6611 60.1822C35.4371 60.1822 35.3252 60.0533 35.3252 59.7955C35.3252 59.746 35.3213 59.6548 35.3134 59.522L35.3017 59.1939C34.8903 59.2434 34.5608 59.3593 34.3134 59.5416C34.0817 59.7108 33.889 59.966 33.7353 60.3072L33.7431 62.4478C33.7431 62.7108 33.6142 62.8423 33.3564 62.8423C33.1272 62.8423 33.0127 62.7108 33.0127 62.4478V59.7056C33.0127 59.6197 33.0153 59.4908 33.0205 59.3189C33.0283 59.147 33.0322 59.0181 33.0322 58.9322C33.0322 58.6692 33.1468 58.5377 33.3759 58.5377C33.6312 58.5377 33.7601 58.7538 33.7627 59.1861C34.2627 58.7043 34.8174 58.4634 35.4267 58.4634C35.6377 58.4634 35.7952 58.5429 35.8994 58.7017C36.0036 58.8606 36.0556 59.1002 36.0556 59.4205C36.0556 59.5559 36.0543 59.647 36.0517 59.6939Z" fill="#245875"/>
<path d="M4.77438 17.3594C3.5973 17.3594 2.64418 17.0651 1.91501 16.4766C1.11813 15.8255 0.719696 14.9141 0.719696 13.7422C0.719696 12.388 1.04782 11.2526 1.70407 10.3359C2.41761 9.33594 3.37074 8.83594 4.56345 8.83594C5.42803 8.83594 6.13376 8.98177 6.68063 9.27344C7.35251 9.63281 7.68845 10.1849 7.68845 10.9297C7.68845 11.4505 7.39418 11.9245 6.80563 12.3516C6.54522 12.5391 5.99313 12.8307 5.14938 13.2266L2.16501 14.6406C2.45668 15.0729 2.81865 15.3984 3.25095 15.6172C3.68845 15.8359 4.19626 15.9453 4.77438 15.9453C5.13376 15.9453 5.55563 15.8776 6.04001 15.7422C6.65459 15.5703 7.05043 15.3464 7.22751 15.0703C7.40459 14.7891 7.5947 14.6484 7.79782 14.6484C7.98011 14.6484 8.14157 14.7188 8.2822 14.8594C8.42803 14.9948 8.50095 15.1536 8.50095 15.3359C8.50095 15.9141 8.0348 16.4115 7.10251 16.8281C6.30563 17.1823 5.52959 17.3594 4.77438 17.3594ZM4.56345 10.2422C3.92803 10.2422 3.39938 10.4896 2.97751 10.9844C2.55563 11.474 2.24053 12.2135 2.0322 13.2031L4.43063 12.0625C5.37334 11.6042 6.04522 11.2057 6.44626 10.8672C5.99834 10.4505 5.37074 10.2422 4.56345 10.2422ZM16.3213 13.6328L16.1416 16.2578C16.1103 17.2995 16.0036 18.151 15.8213 18.8125C15.5869 19.6562 15.2119 20.2786 14.6963 20.6797C14.0713 21.1641 13.1676 21.4062 11.9853 21.4062C11.2926 21.4062 10.7119 21.3594 10.2431 21.2656C9.58688 21.1354 9.25876 20.8646 9.25876 20.4531C9.25876 19.9896 9.48532 19.7578 9.93845 19.7578C10.1259 19.7578 10.4384 19.8021 10.8759 19.8906C11.3134 19.9844 11.7978 20.026 12.3291 20.0156C13.3291 20 14.0192 19.5156 14.3994 18.5625C14.6494 17.9271 14.7822 16.9505 14.7978 15.6328C14.5166 16.1536 14.1806 16.5443 13.79 16.8047C13.4046 17.0651 12.9619 17.1953 12.4619 17.1953C11.5192 17.1953 10.7509 16.875 10.1572 16.2344C9.56865 15.5885 9.27438 14.7526 9.27438 13.7266C9.27438 12.3203 9.67803 11.1875 10.4853 10.3281C11.3187 9.44271 12.4541 9 13.8916 9C14.3759 9 14.7822 9.0625 15.1103 9.1875C15.4384 9.3125 15.6884 9.5 15.8603 9.75C16.4176 9.76562 16.6963 10.0755 16.6963 10.6797C16.6963 11.0495 16.6416 11.5443 16.5322 12.1641C16.4124 12.8828 16.3421 13.3724 16.3213 13.6328ZM13.8134 10.25C12.8239 10.25 12.0582 10.5911 11.5166 11.2734C11.0322 11.888 10.79 12.6693 10.79 13.6172C10.79 14.3724 10.9332 14.9401 11.2197 15.3203C11.5062 15.7005 11.9358 15.8906 12.5088 15.8906C13.0348 15.8906 13.5452 15.5938 14.04 15C14.4879 14.4531 14.7431 13.9115 14.8056 13.375C14.915 12.8125 15.0322 11.9297 15.1572 10.7266C14.9489 10.5651 14.7327 10.4453 14.5088 10.3672C14.2848 10.2891 14.053 10.25 13.8134 10.25ZM21.3213 17.4609C20.4463 17.4609 19.6937 17.138 19.0634 16.4922C18.3603 15.7734 17.9905 14.8073 17.9541 13.5938C17.9228 12.4167 18.2197 11.3802 18.8447 10.4844C19.5739 9.42708 20.5895 8.89844 21.8916 8.89844C22.9332 8.89844 23.7223 9.375 24.2588 10.3281C24.6858 11.099 24.8916 12.026 24.8759 13.1094C24.8603 14.2656 24.5582 15.2526 23.9697 16.0703C23.303 16.9974 22.4202 17.4609 21.3213 17.4609ZM21.79 10.4844C21.0244 10.4792 20.428 10.8438 20.0009 11.5781C19.6624 12.1667 19.4931 12.8385 19.4931 13.5938C19.4931 14.349 19.6989 14.9375 20.1103 15.3594C20.4541 15.7083 20.8577 15.8828 21.3213 15.8828C21.8629 15.8828 22.3291 15.6849 22.7197 15.2891C23.1624 14.8516 23.3968 14.2604 23.4228 13.5156C23.4957 11.5 22.9515 10.4896 21.79 10.4844ZM32.8916 11.2266C32.8551 11.8776 32.5947 12.2031 32.1103 12.2031C31.6624 12.2031 31.4384 11.9453 31.4384 11.4297C31.4384 11.3307 31.4306 11.1484 31.415 10.8828L31.3916 10.2266C30.5687 10.3255 29.9098 10.5573 29.415 10.9219C28.9515 11.2604 28.5661 11.7708 28.2588 12.4531L28.2744 16.7344C28.2744 17.2604 28.0166 17.5234 27.5009 17.5234C27.0426 17.5234 26.8134 17.2604 26.8134 16.7344V11.25C26.8134 11.0781 26.8187 10.8203 26.8291 10.4766C26.8447 10.1328 26.8525 9.875 26.8525 9.70312C26.8525 9.17708 27.0817 8.91406 27.54 8.91406C28.0504 8.91406 28.3082 9.34635 28.3134 10.2109C29.3134 9.2474 30.4228 8.76562 31.6416 8.76562C32.0634 8.76562 32.3786 8.92448 32.5869 9.24219C32.7952 9.5599 32.8994 10.0391 32.8994 10.6797C32.8994 10.9505 32.8968 11.1328 32.8916 11.2266ZM37.4306 17.4609C36.5556 17.4609 35.803 17.138 35.1728 16.4922C34.4697 15.7734 34.0999 14.8073 34.0634 13.5938C34.0322 12.4167 34.3291 11.3802 34.9541 10.4844C35.6832 9.42708 36.6989 8.89844 38.0009 8.89844C39.0426 8.89844 39.8317 9.375 40.3681 10.3281C40.7952 11.099 41.0009 12.026 40.9853 13.1094C40.9697 14.2656 40.6676 15.2526 40.0791 16.0703C39.4124 16.9974 38.5296 17.4609 37.4306 17.4609ZM37.8994 10.4844C37.1338 10.4792 36.5374 10.8438 36.1103 11.5781C35.7718 12.1667 35.6025 12.8385 35.6025 13.5938C35.6025 14.349 35.8082 14.9375 36.2197 15.3594C36.5634 15.7083 36.9671 15.8828 37.4306 15.8828C37.9723 15.8828 38.4384 15.6849 38.8291 15.2891C39.2718 14.8516 39.5062 14.2604 39.5322 13.5156C39.6051 11.5 39.0608 10.4896 37.8994 10.4844ZM46.5244 16.5938C46.5088 17.0729 46.2718 17.3125 45.8134 17.3125C45.4332 17.3125 45.1572 17.0885 44.9853 16.6406L43.79 13.4688L42.3994 9.88281C42.3473 9.7474 42.3213 9.6276 42.3213 9.52344C42.3213 9.3099 42.402 9.1276 42.5634 8.97656C42.7249 8.82552 42.9124 8.75 43.1259 8.75C43.4384 8.75 43.6624 8.90885 43.7978 9.22656L45.7822 14.6875C46.1728 13.8542 46.665 12.6458 47.2588 11.0625C47.3994 10.6458 47.6207 10.0573 47.9228 9.29688C48.0843 8.96354 48.3134 8.79688 48.6103 8.79688C48.8239 8.79688 49.0114 8.8724 49.1728 9.02344C49.3343 9.17448 49.415 9.35417 49.415 9.5625C49.415 9.76042 48.9853 10.875 48.1259 12.9062L46.5244 16.5938ZM51.7041 17.7266C51.4332 17.7266 51.2041 17.6328 51.0166 17.4453C50.8291 17.2578 50.7353 17.0286 50.7353 16.7578C50.7353 16.4922 50.8291 16.2656 51.0166 16.0781C51.2041 15.8854 51.4332 15.7891 51.7041 15.7891C51.9697 15.7891 52.1963 15.8854 52.3838 16.0781C52.5765 16.2656 52.6728 16.4922 52.6728 16.7578C52.6728 17.0286 52.5765 17.2578 52.3838 17.4453C52.1963 17.6328 51.9697 17.7266 51.7041 17.7266ZM8.32126 32.1016C8.25876 32.8672 8.22751 33.6328 8.22751 34.3984C8.22751 36.1328 8.30824 37.4427 8.4697 38.3281C8.48011 38.401 8.48532 38.4609 8.48532 38.5078C8.48532 38.7161 8.4124 38.888 8.26657 39.0234C8.12074 39.1589 7.95147 39.2266 7.75876 39.2266C7.43584 39.2266 7.19886 38.9922 7.04782 38.5234C6.67282 38.7995 6.2822 39.0078 5.87595 39.1484C5.4749 39.2891 5.05563 39.3594 4.61813 39.3594C3.54001 39.3594 2.64678 39 1.93845 38.2812C1.20928 37.5469 0.844696 36.6042 0.844696 35.4531C0.844696 34.0625 1.21188 32.9479 1.94626 32.1094C2.68584 31.2708 3.64418 30.8516 4.82126 30.8516C5.42543 30.8516 5.89157 30.9453 6.2197 31.1328L6.95407 31.6719C7.02699 29.4792 7.11293 28.0026 7.21188 27.2422C7.27959 26.7786 7.51657 26.5469 7.92282 26.5469C8.39678 26.5469 8.63376 26.7995 8.63376 27.3047C8.63376 28.0286 8.52959 29.6276 8.32126 32.1016ZM4.85251 32.3047C3.97751 32.3047 3.32126 32.5651 2.88376 33.0859C2.44626 33.6016 2.22751 34.3802 2.22751 35.4219C2.22751 36.0938 2.46449 36.6719 2.93845 37.1562C3.41761 37.6406 3.97751 37.8828 4.61813 37.8828C5.05563 37.8828 5.42543 37.8021 5.72751 37.6406C5.90459 37.5469 6.19365 37.3307 6.5947 36.9922C6.67282 36.9245 6.74834 36.8438 6.82126 36.75L6.79782 35.3984L6.80563 34.4922L6.82126 33.5703C6.62334 33.1484 6.36032 32.8333 6.0322 32.625C5.70407 32.4115 5.31084 32.3047 4.85251 32.3047ZM14.1806 39.3594C13.0036 39.3594 12.0504 39.0651 11.3213 38.4766C10.5244 37.8255 10.1259 36.9141 10.1259 35.7422C10.1259 34.388 10.4541 33.2526 11.1103 32.3359C11.8239 31.3359 12.777 30.8359 13.9697 30.8359C14.8343 30.8359 15.54 30.9818 16.0869 31.2734C16.7588 31.6328 17.0947 32.1849 17.0947 32.9297C17.0947 33.4505 16.8004 33.9245 16.2119 34.3516C15.9515 34.5391 15.3994 34.8307 14.5556 35.2266L11.5713 36.6406C11.8629 37.0729 12.2249 37.3984 12.6572 37.6172C13.0947 37.8359 13.6025 37.9453 14.1806 37.9453C14.54 37.9453 14.9619 37.8776 15.4463 37.7422C16.0608 37.5703 16.4567 37.3464 16.6338 37.0703C16.8108 36.7891 17.0009 36.6484 17.2041 36.6484C17.3864 36.6484 17.5478 36.7188 17.6884 36.8594C17.8343 36.9948 17.9072 37.1536 17.9072 37.3359C17.9072 37.9141 17.4411 38.4115 16.5088 38.8281C15.7119 39.1823 14.9358 39.3594 14.1806 39.3594ZM13.9697 32.2422C13.3343 32.2422 12.8056 32.4896 12.3838 32.9844C11.9619 33.474 11.6468 34.2135 11.4384 35.2031L13.8369 34.0625C14.7796 33.6042 15.4515 33.2057 15.8525 32.8672C15.4046 32.4505 14.777 32.2422 13.9697 32.2422ZM22.8994 38.5938C22.8838 39.0729 22.6468 39.3125 22.1884 39.3125C21.8082 39.3125 21.5322 39.0885 21.3603 38.6406L20.165 35.4688L18.7744 31.8828C18.7223 31.7474 18.6963 31.6276 18.6963 31.5234C18.6963 31.3099 18.777 31.1276 18.9384 30.9766C19.0999 30.8255 19.2874 30.75 19.5009 30.75C19.8134 30.75 20.0374 30.9089 20.1728 31.2266L22.1572 36.6875C22.5478 35.8542 23.04 34.6458 23.6338 33.0625C23.7744 32.6458 23.9957 32.0573 24.2978 31.2969C24.4593 30.9635 24.6884 30.7969 24.9853 30.7969C25.1989 30.7969 25.3864 30.8724 25.5478 31.0234C25.7093 31.1745 25.79 31.3542 25.79 31.5625C25.79 31.7604 25.3603 32.875 24.5009 34.9062L22.8994 38.5938Z" fill="black"/>
</svg>
