<svg width="125" height="32" viewBox="0 0 125 32" fill="none" xmlns="http://www.w3.org/2000/svg">
	<path d="M32.7344 17.3594C31.5573 17.3594 30.6042 17.0651 29.875 16.4766C29.0781 15.8255 28.6797 14.9141 28.6797 13.7422C28.6797 12.388 29.0078 11.2526 29.6641 10.3359C30.3776 9.33594 31.3307 8.83594 32.5234 8.83594C33.388 8.83594 34.0938 8.98177 34.6406 9.27344C35.3125 9.63281 35.6484 10.1849 35.6484 10.9297C35.6484 11.4505 35.3542 11.9245 34.7656 12.3516C34.5052 12.5391 33.9531 12.8307 33.1094 13.2266L30.125 14.6406C30.4167 15.0729 30.7786 15.3984 31.2109 15.6172C31.6484 15.8359 32.1562 15.9453 32.7344 15.9453C33.0938 15.9453 33.5156 15.8776 34 15.7422C34.6146 15.5703 35.0104 15.3464 35.1875 15.0703C35.3646 14.7891 35.5547 14.6484 35.7578 14.6484C35.9401 14.6484 36.1016 14.7188 36.2422 14.8594C36.388 14.9948 36.4609 15.1536 36.4609 15.3359C36.4609 15.9141 35.9948 16.4115 35.0625 16.8281C34.2656 17.1823 33.4896 17.3594 32.7344 17.3594ZM32.5234 10.2422C31.888 10.2422 31.3594 10.4896 30.9375 10.9844C30.5156 11.474 30.2005 12.2135 29.9922 13.2031L32.3906 12.0625C33.3333 11.6042 34.0052 11.2057 34.4062 10.8672C33.9583 10.4505 33.3307 10.2422 32.5234 10.2422ZM44.2812 13.6328L44.1016 16.2578C44.0703 17.2995 43.9635 18.151 43.7812 18.8125C43.5469 19.6562 43.1719 20.2786 42.6562 20.6797C42.0312 21.1641 41.1276 21.4062 39.9453 21.4062C39.2526 21.4062 38.6719 21.3594 38.2031 21.2656C37.5469 21.1354 37.2188 20.8646 37.2188 20.4531C37.2188 19.9896 37.4453 19.7578 37.8984 19.7578C38.0859 19.7578 38.3984 19.8021 38.8359 19.8906C39.2734 19.9844 39.7578 20.026 40.2891 20.0156C41.2891 20 41.9792 19.5156 42.3594 18.5625C42.6094 17.9271 42.7422 16.9505 42.7578 15.6328C42.4766 16.1536 42.1406 16.5443 41.75 16.8047C41.3646 17.0651 40.9219 17.1953 40.4219 17.1953C39.4792 17.1953 38.7109 16.875 38.1172 16.2344C37.5286 15.5885 37.2344 14.7526 37.2344 13.7266C37.2344 12.3203 37.638 11.1875 38.4453 10.3281C39.2786 9.44271 40.4141 9 41.8516 9C42.3359 9 42.7422 9.0625 43.0703 9.1875C43.3984 9.3125 43.6484 9.5 43.8203 9.75C44.3776 9.76562 44.6562 10.0755 44.6562 10.6797C44.6562 11.0495 44.6016 11.5443 44.4922 12.1641C44.3724 12.8828 44.3021 13.3724 44.2812 13.6328ZM41.7734 10.25C40.7839 10.25 40.0182 10.5911 39.4766 11.2734C38.9922 11.888 38.75 12.6693 38.75 13.6172C38.75 14.3724 38.8932 14.9401 39.1797 15.3203C39.4661 15.7005 39.8958 15.8906 40.4688 15.8906C40.9948 15.8906 41.5052 15.5938 42 15C42.4479 14.4531 42.7031 13.9115 42.7656 13.375C42.875 12.8125 42.9922 11.9297 43.1172 10.7266C42.9089 10.5651 42.6927 10.4453 42.4688 10.3672C42.2448 10.2891 42.013 10.25 41.7734 10.25ZM49.2812 17.4609C48.4062 17.4609 47.6536 17.138 47.0234 16.4922C46.3203 15.7734 45.9505 14.8073 45.9141 13.5938C45.8828 12.4167 46.1797 11.3802 46.8047 10.4844C47.5339 9.42708 48.5495 8.89844 49.8516 8.89844C50.8932 8.89844 51.6823 9.375 52.2188 10.3281C52.6458 11.099 52.8516 12.026 52.8359 13.1094C52.8203 14.2656 52.5182 15.2526 51.9297 16.0703C51.263 16.9974 50.3802 17.4609 49.2812 17.4609ZM49.75 10.4844C48.9844 10.4792 48.388 10.8438 47.9609 11.5781C47.6224 12.1667 47.4531 12.8385 47.4531 13.5938C47.4531 14.349 47.6589 14.9375 48.0703 15.3594C48.4141 15.7083 48.8177 15.8828 49.2812 15.8828C49.8229 15.8828 50.2891 15.6849 50.6797 15.2891C51.1224 14.8516 51.3568 14.2604 51.3828 13.5156C51.4557 11.5 50.9115 10.4896 49.75 10.4844ZM60.8516 11.2266C60.8151 11.8776 60.5547 12.2031 60.0703 12.2031C59.6224 12.2031 59.3984 11.9453 59.3984 11.4297C59.3984 11.3307 59.3906 11.1484 59.375 10.8828L59.3516 10.2266C58.5286 10.3255 57.8698 10.5573 57.375 10.9219C56.9115 11.2604 56.526 11.7708 56.2188 12.4531L56.2344 16.7344C56.2344 17.2604 55.9766 17.5234 55.4609 17.5234C55.0026 17.5234 54.7734 17.2604 54.7734 16.7344V11.25C54.7734 11.0781 54.7786 10.8203 54.7891 10.4766C54.8047 10.1328 54.8125 9.875 54.8125 9.70312C54.8125 9.17708 55.0417 8.91406 55.5 8.91406C56.0104 8.91406 56.2682 9.34635 56.2734 10.2109C57.2734 9.2474 58.3828 8.76562 59.6016 8.76562C60.0234 8.76562 60.3385 8.92448 60.5469 9.24219C60.7552 9.5599 60.8594 10.0391 60.8594 10.6797C60.8594 10.9505 60.8568 11.1328 60.8516 11.2266ZM65.3906 17.4609C64.5156 17.4609 63.763 17.138 63.1328 16.4922C62.4297 15.7734 62.0599 14.8073 62.0234 13.5938C61.9922 12.4167 62.2891 11.3802 62.9141 10.4844C63.6432 9.42708 64.6589 8.89844 65.9609 8.89844C67.0026 8.89844 67.7917 9.375 68.3281 10.3281C68.7552 11.099 68.9609 12.026 68.9453 13.1094C68.9297 14.2656 68.6276 15.2526 68.0391 16.0703C67.3724 16.9974 66.4896 17.4609 65.3906 17.4609ZM65.8594 10.4844C65.0938 10.4792 64.4974 10.8438 64.0703 11.5781C63.7318 12.1667 63.5625 12.8385 63.5625 13.5938C63.5625 14.349 63.7682 14.9375 64.1797 15.3594C64.5234 15.7083 64.9271 15.8828 65.3906 15.8828C65.9323 15.8828 66.3984 15.6849 66.7891 15.2891C67.2318 14.8516 67.4661 14.2604 67.4922 13.5156C67.5651 11.5 67.0208 10.4896 65.8594 10.4844ZM74.4844 16.5938C74.4688 17.0729 74.2318 17.3125 73.7734 17.3125C73.3932 17.3125 73.1172 17.0885 72.9453 16.6406L71.75 13.4688L70.3594 9.88281C70.3073 9.7474 70.2812 9.6276 70.2812 9.52344C70.2812 9.3099 70.362 9.1276 70.5234 8.97656C70.6849 8.82552 70.8724 8.75 71.0859 8.75C71.3984 8.75 71.6224 8.90885 71.7578 9.22656L73.7422 14.6875C74.1328 13.8542 74.625 12.6458 75.2188 11.0625C75.3594 10.6458 75.5807 10.0573 75.8828 9.29688C76.0443 8.96354 76.2734 8.79688 76.5703 8.79688C76.7839 8.79688 76.9714 8.8724 77.1328 9.02344C77.2943 9.17448 77.375 9.35417 77.375 9.5625C77.375 9.76042 76.9453 10.875 76.0859 12.9062L74.4844 16.5938ZM79.6641 17.7266C79.3932 17.7266 79.1641 17.6328 78.9766 17.4453C78.7891 17.2578 78.6953 17.0286 78.6953 16.7578C78.6953 16.4922 78.7891 16.2656 78.9766 16.0781C79.1641 15.8854 79.3932 15.7891 79.6641 15.7891C79.9297 15.7891 80.1562 15.8854 80.3438 16.0781C80.5365 16.2656 80.6328 16.4922 80.6328 16.7578C80.6328 17.0286 80.5365 17.2578 80.3438 17.4453C80.1562 17.6328 79.9297 17.7266 79.6641 17.7266ZM89.8438 10.1016C89.7812 10.8672 89.75 11.6328 89.75 12.3984C89.75 14.1328 89.8307 15.4427 89.9922 16.3281C90.0026 16.401 90.0078 16.4609 90.0078 16.5078C90.0078 16.7161 89.9349 16.888 89.7891 17.0234C89.6432 17.1589 89.474 17.2266 89.2812 17.2266C88.9583 17.2266 88.7214 16.9922 88.5703 16.5234C88.1953 16.7995 87.8047 17.0078 87.3984 17.1484C86.9974 17.2891 86.5781 17.3594 86.1406 17.3594C85.0625 17.3594 84.1693 17 83.4609 16.2812C82.7318 15.5469 82.3672 14.6042 82.3672 13.4531C82.3672 12.0625 82.7344 10.9479 83.4688 10.1094C84.2083 9.27083 85.1667 8.85156 86.3438 8.85156C86.9479 8.85156 87.4141 8.94531 87.7422 9.13281L88.4766 9.67188C88.5495 7.47917 88.6354 6.0026 88.7344 5.24219C88.8021 4.77865 89.0391 4.54688 89.4453 4.54688C89.9193 4.54688 90.1562 4.79948 90.1562 5.30469C90.1562 6.02865 90.0521 7.6276 89.8438 10.1016ZM86.375 10.3047C85.5 10.3047 84.8438 10.5651 84.4062 11.0859C83.9688 11.6016 83.75 12.3802 83.75 13.4219C83.75 14.0938 83.987 14.6719 84.4609 15.1562C84.9401 15.6406 85.5 15.8828 86.1406 15.8828C86.5781 15.8828 86.9479 15.8021 87.25 15.6406C87.4271 15.5469 87.7161 15.3307 88.1172 14.9922C88.1953 14.9245 88.2708 14.8438 88.3438 14.75L88.3203 13.3984L88.3281 12.4922L88.3438 11.5703C88.1458 11.1484 87.8828 10.8333 87.5547 10.625C87.2266 10.4115 86.8333 10.3047 86.375 10.3047ZM95.7031 17.3594C94.526 17.3594 93.5729 17.0651 92.8438 16.4766C92.0469 15.8255 91.6484 14.9141 91.6484 13.7422C91.6484 12.388 91.9766 11.2526 92.6328 10.3359C93.3464 9.33594 94.2995 8.83594 95.4922 8.83594C96.3568 8.83594 97.0625 8.98177 97.6094 9.27344C98.2812 9.63281 98.6172 10.1849 98.6172 10.9297C98.6172 11.4505 98.3229 11.9245 97.7344 12.3516C97.474 12.5391 96.9219 12.8307 96.0781 13.2266L93.0938 14.6406C93.3854 15.0729 93.7474 15.3984 94.1797 15.6172C94.6172 15.8359 95.125 15.9453 95.7031 15.9453C96.0625 15.9453 96.4844 15.8776 96.9688 15.7422C97.5833 15.5703 97.9792 15.3464 98.1562 15.0703C98.3333 14.7891 98.5234 14.6484 98.7266 14.6484C98.9089 14.6484 99.0703 14.7188 99.2109 14.8594C99.3568 14.9948 99.4297 15.1536 99.4297 15.3359C99.4297 15.9141 98.9635 16.4115 98.0312 16.8281C97.2344 17.1823 96.4583 17.3594 95.7031 17.3594ZM95.4922 10.2422C94.8568 10.2422 94.3281 10.4896 93.9062 10.9844C93.4844 11.474 93.1693 12.2135 92.9609 13.2031L95.3594 12.0625C96.3021 11.6042 96.974 11.2057 97.375 10.8672C96.9271 10.4505 96.2995 10.2422 95.4922 10.2422ZM104.422 16.5938C104.406 17.0729 104.169 17.3125 103.711 17.3125C103.331 17.3125 103.055 17.0885 102.883 16.6406L101.688 13.4688L100.297 9.88281C100.245 9.7474 100.219 9.6276 100.219 9.52344C100.219 9.3099 100.299 9.1276 100.461 8.97656C100.622 8.82552 100.81 8.75 101.023 8.75C101.336 8.75 101.56 8.90885 101.695 9.22656L103.68 14.6875C104.07 13.8542 104.562 12.6458 105.156 11.0625C105.297 10.6458 105.518 10.0573 105.82 9.29688C105.982 8.96354 106.211 8.79688 106.508 8.79688C106.721 8.79688 106.909 8.8724 107.07 9.02344C107.232 9.17448 107.312 9.35417 107.312 9.5625C107.312 9.76042 106.883 10.875 106.023 12.9062L104.422 16.5938Z" fill="black"/>
	<path d="M31.168 23.5078C30.5378 23.5078 30.1849 23.9453 30.1094 24.8203L30.0977 25.0625C30.5404 25.0312 30.8268 25.0156 30.957 25.0156C31.3711 25.0156 31.5781 25.1458 31.5781 25.4062C31.5781 25.5964 31.4766 25.7096 31.2734 25.7461C31.1849 25.7617 31.0807 25.7682 30.9609 25.7656C30.8438 25.7604 30.5443 25.7773 30.0625 25.8164L30.0312 26.707C30.0312 26.8685 30.0365 27.1107 30.0469 27.4336C30.0573 27.7565 30.0625 27.9974 30.0625 28.1562C30.0625 28.651 30.0339 29.0365 29.9766 29.3125C29.9323 29.5208 29.8112 29.625 29.6133 29.625C29.5065 29.625 29.4154 29.5898 29.3398 29.5195C29.2643 29.4518 29.2266 29.3659 29.2266 29.2617C29.2266 29.2409 29.2292 29.2148 29.2344 29.1836C29.2891 28.8451 29.3164 28.4766 29.3164 28.0781L29.3047 27.0117V25.8789C28.9792 25.9049 28.7734 25.918 28.6875 25.918C28.4245 25.918 28.293 25.7917 28.293 25.5391C28.293 25.2812 28.5208 25.1458 28.9766 25.1328L29.3516 25.1211C29.3594 24.9753 29.3789 24.7773 29.4102 24.5273C29.4779 23.9492 29.6237 23.5234 29.8477 23.25C30.1185 22.9193 30.5417 22.7539 31.1172 22.7539C31.4896 22.7539 31.6758 22.8802 31.6758 23.1328C31.6758 23.3828 31.5065 23.5078 31.168 23.5078ZM35.6523 26.1133C35.6341 26.4388 35.5039 26.6016 35.2617 26.6016C35.0378 26.6016 34.9258 26.4727 34.9258 26.2148C34.9258 26.1654 34.9219 26.0742 34.9141 25.9414L34.9023 25.6133C34.4909 25.6628 34.1615 25.7786 33.9141 25.9609C33.6823 26.1302 33.4896 26.3854 33.3359 26.7266L33.3438 28.8672C33.3438 29.1302 33.2148 29.2617 32.957 29.2617C32.7279 29.2617 32.6133 29.1302 32.6133 28.8672V26.125C32.6133 26.0391 32.6159 25.9102 32.6211 25.7383C32.6289 25.5664 32.6328 25.4375 32.6328 25.3516C32.6328 25.0885 32.7474 24.957 32.9766 24.957C33.2318 24.957 33.3607 25.1732 33.3633 25.6055C33.8633 25.1237 34.418 24.8828 35.0273 24.8828C35.2383 24.8828 35.3958 24.9622 35.5 25.1211C35.6042 25.2799 35.6562 25.5195 35.6562 25.8398C35.6562 25.9753 35.6549 26.0664 35.6523 26.1133ZM37.9219 29.2305C37.4844 29.2305 37.1081 29.069 36.793 28.7461C36.4414 28.3867 36.2565 27.9036 36.2383 27.2969C36.2227 26.7083 36.3711 26.1901 36.6836 25.7422C37.0482 25.2135 37.556 24.9492 38.207 24.9492C38.7279 24.9492 39.1224 25.1875 39.3906 25.6641C39.6042 26.0495 39.707 26.513 39.6992 27.0547C39.6914 27.6328 39.5404 28.1263 39.2461 28.5352C38.9128 28.9987 38.4714 29.2305 37.9219 29.2305ZM38.1562 25.7422C37.7734 25.7396 37.4753 25.9219 37.2617 26.2891C37.0924 26.5833 37.0078 26.9193 37.0078 27.2969C37.0078 27.6745 37.1107 27.9688 37.3164 28.1797C37.4883 28.3542 37.6901 28.4414 37.9219 28.4414C38.1927 28.4414 38.4258 28.3424 38.6211 28.1445C38.8424 27.9258 38.9596 27.6302 38.9727 27.2578C39.0091 26.25 38.737 25.7448 38.1562 25.7422ZM43.6641 29.2773C43.4401 29.2773 43.3138 29.1549 43.2852 28.9102L43.1758 28.0547C43.1393 27.75 43.1211 27.4648 43.1211 27.1992C43.1211 27.1263 43.125 27.0026 43.1328 26.8281C43.1432 26.6536 43.1484 26.5299 43.1484 26.457C43.1484 25.8945 43.0443 25.6133 42.8359 25.6133C42.5443 25.6133 42.2656 25.7865 42 26.1328C41.7604 26.4479 41.5729 26.8464 41.4375 27.3281C41.4323 27.4297 41.4206 27.5573 41.4023 27.7109C41.3867 27.8411 41.3789 27.9674 41.3789 28.0898C41.3789 28.168 41.3867 28.2852 41.4023 28.4414C41.418 28.5977 41.4258 28.7148 41.4258 28.793C41.4258 28.9102 41.3893 29.0052 41.3164 29.0781C41.2461 29.151 41.1549 29.1875 41.043 29.1875C40.9284 29.1875 40.8359 29.151 40.7656 29.0781C40.6953 29.0052 40.6602 28.9102 40.6602 28.793C40.6602 28.7148 40.651 28.5977 40.6328 28.4414C40.6172 28.2852 40.6094 28.168 40.6094 28.0898C40.6094 27.8216 40.6276 27.4505 40.6641 26.9766C40.7031 26.5 40.7227 26.1276 40.7227 25.8594C40.7227 25.776 40.7174 25.6523 40.707 25.4883C40.6992 25.3242 40.6953 25.2005 40.6953 25.1172C40.6953 25.0052 40.7318 24.9141 40.8047 24.8438C40.8802 24.7708 40.9727 24.7344 41.082 24.7344C41.3216 24.7344 41.4531 24.9036 41.4766 25.2422L41.4883 25.6992C41.9258 25.1159 42.375 24.8242 42.8359 24.8242C43.2526 24.8242 43.543 25.0078 43.707 25.375C43.819 25.6198 43.8802 25.9818 43.8906 26.4609V26.8555L43.8867 27.2188C43.8867 27.4349 43.9141 27.7148 43.9688 28.0586C44.026 28.3997 44.0547 28.6771 44.0547 28.8906C44.0547 29.0052 44.0169 29.0977 43.9414 29.168C43.8685 29.2409 43.776 29.2773 43.6641 29.2773ZM47.4688 25.6719C47.4141 25.6719 47.349 25.6693 47.2734 25.6641C47.2005 25.6589 47.1367 25.6562 47.082 25.6562C47.0221 25.6562 46.8451 25.6758 46.5508 25.7148L46.625 28.0234L46.6289 28.1953L46.6328 28.3945C46.6432 28.9648 46.5065 29.25 46.2227 29.25C46.1185 29.25 46.0273 29.2161 45.9492 29.1484C45.8737 29.0807 45.8359 28.9961 45.8359 28.8945C45.8359 28.7956 45.8398 28.6471 45.8477 28.4492C45.8555 28.2513 45.8594 28.1029 45.8594 28.0039L45.7812 25.7227C45.5911 25.7148 45.3021 25.6927 44.9141 25.6562C44.6823 25.625 44.5664 25.4961 44.5664 25.2695C44.5664 25.1549 44.6016 25.0599 44.6719 24.9844C44.7422 24.9089 44.832 24.8711 44.9414 24.8711L45.7617 24.9375C45.7617 24.8047 45.7552 24.6276 45.7422 24.4062C45.7318 24.1823 45.7266 24.0208 45.7266 23.9219C45.7266 23.8125 45.7643 23.7227 45.8398 23.6523C45.9154 23.5794 46.0078 23.543 46.1172 23.543C46.3516 23.543 46.4883 23.7344 46.5273 24.1172C46.5352 24.2135 46.5391 24.3294 46.5391 24.4648L46.5312 24.6914L46.5273 24.9336C46.8503 24.8919 47.0352 24.8711 47.082 24.8711C47.3529 24.8711 47.5299 24.8841 47.6133 24.9102C47.7721 24.9622 47.8516 25.0846 47.8516 25.2773C47.8516 25.3919 47.8151 25.487 47.7422 25.5625C47.6719 25.6354 47.5807 25.6719 47.4688 25.6719ZM50.4531 29.1797C49.8646 29.1797 49.388 29.0326 49.0234 28.7383C48.625 28.4128 48.4258 27.957 48.4258 27.3711C48.4258 26.694 48.5898 26.1263 48.918 25.668C49.2747 25.168 49.7513 24.918 50.3477 24.918C50.7799 24.918 51.1328 24.9909 51.4062 25.1367C51.7422 25.3164 51.9102 25.5924 51.9102 25.9648C51.9102 26.2253 51.763 26.4622 51.4688 26.6758C51.3385 26.7695 51.0625 26.9154 50.6406 27.1133L49.1484 27.8203C49.2943 28.0365 49.4753 28.1992 49.6914 28.3086C49.9102 28.418 50.1641 28.4727 50.4531 28.4727C50.6328 28.4727 50.8438 28.4388 51.0859 28.3711C51.3932 28.2852 51.5911 28.1732 51.6797 28.0352C51.7682 27.8945 51.8633 27.8242 51.9648 27.8242C52.056 27.8242 52.1367 27.8594 52.207 27.9297C52.2799 27.9974 52.3164 28.0768 52.3164 28.168C52.3164 28.457 52.0833 28.7057 51.6172 28.9141C51.2188 29.0911 50.8307 29.1797 50.4531 29.1797ZM50.3477 25.6211C50.0299 25.6211 49.7656 25.7448 49.5547 25.9922C49.3438 26.237 49.1862 26.6068 49.082 27.1016L50.2812 26.5312C50.7526 26.3021 51.0885 26.1029 51.2891 25.9336C51.0651 25.7253 50.7513 25.6211 50.3477 25.6211ZM56.0078 29.2773C55.7839 29.2773 55.6576 29.1549 55.6289 28.9102L55.5195 28.0547C55.4831 27.75 55.4648 27.4648 55.4648 27.1992C55.4648 27.1263 55.4688 27.0026 55.4766 26.8281C55.487 26.6536 55.4922 26.5299 55.4922 26.457C55.4922 25.8945 55.388 25.6133 55.1797 25.6133C54.888 25.6133 54.6094 25.7865 54.3438 26.1328C54.1042 26.4479 53.9167 26.8464 53.7812 27.3281C53.776 27.4297 53.7643 27.5573 53.7461 27.7109C53.7305 27.8411 53.7227 27.9674 53.7227 28.0898C53.7227 28.168 53.7305 28.2852 53.7461 28.4414C53.7617 28.5977 53.7695 28.7148 53.7695 28.793C53.7695 28.9102 53.7331 29.0052 53.6602 29.0781C53.5898 29.151 53.4987 29.1875 53.3867 29.1875C53.2721 29.1875 53.1797 29.151 53.1094 29.0781C53.0391 29.0052 53.0039 28.9102 53.0039 28.793C53.0039 28.7148 52.9948 28.5977 52.9766 28.4414C52.9609 28.2852 52.9531 28.168 52.9531 28.0898C52.9531 27.8216 52.9714 27.4505 53.0078 26.9766C53.0469 26.5 53.0664 26.1276 53.0664 25.8594C53.0664 25.776 53.0612 25.6523 53.0508 25.4883C53.043 25.3242 53.0391 25.2005 53.0391 25.1172C53.0391 25.0052 53.0755 24.9141 53.1484 24.8438C53.224 24.7708 53.3164 24.7344 53.4258 24.7344C53.6654 24.7344 53.7969 24.9036 53.8203 25.2422L53.832 25.6992C54.2695 25.1159 54.7188 24.8242 55.1797 24.8242C55.5964 24.8242 55.8867 25.0078 56.0508 25.375C56.1628 25.6198 56.224 25.9818 56.2344 26.4609V26.8555L56.2305 27.2188C56.2305 27.4349 56.2578 27.7148 56.3125 28.0586C56.3698 28.3997 56.3984 28.6771 56.3984 28.8906C56.3984 29.0052 56.3607 29.0977 56.2852 29.168C56.2122 29.2409 56.1198 29.2773 56.0078 29.2773ZM60.7969 25.5508C60.7656 25.9336 60.75 26.3164 60.75 26.6992C60.75 27.5664 60.7904 28.2214 60.8711 28.6641C60.8763 28.7005 60.8789 28.7305 60.8789 28.7539C60.8789 28.8581 60.8424 28.944 60.7695 29.0117C60.6966 29.0794 60.612 29.1133 60.5156 29.1133C60.3542 29.1133 60.2357 28.9961 60.1602 28.7617C59.9727 28.8997 59.7773 29.0039 59.5742 29.0742C59.3737 29.1445 59.1641 29.1797 58.9453 29.1797C58.4062 29.1797 57.9596 29 57.6055 28.6406C57.2409 28.2734 57.0586 27.8021 57.0586 27.2266C57.0586 26.5312 57.2422 25.974 57.6094 25.5547C57.9792 25.1354 58.4583 24.9258 59.0469 24.9258C59.349 24.9258 59.582 24.9727 59.7461 25.0664L60.1133 25.3359C60.1497 24.2396 60.1927 23.5013 60.2422 23.1211C60.276 22.8893 60.3945 22.7734 60.5977 22.7734C60.8346 22.7734 60.9531 22.8997 60.9531 23.1523C60.9531 23.5143 60.901 24.3138 60.7969 25.5508ZM59.0625 25.6523C58.625 25.6523 58.2969 25.7826 58.0781 26.043C57.8594 26.3008 57.75 26.6901 57.75 27.2109C57.75 27.5469 57.8685 27.8359 58.1055 28.0781C58.3451 28.3203 58.625 28.4414 58.9453 28.4414C59.1641 28.4414 59.349 28.401 59.5 28.3203C59.5885 28.2734 59.7331 28.1654 59.9336 27.9961C59.9727 27.9622 60.0104 27.9219 60.0469 27.875L60.0352 27.1992L60.0391 26.7461L60.0469 26.2852C59.9479 26.0742 59.8164 25.9167 59.6523 25.8125C59.4883 25.7057 59.2917 25.6523 59.0625 25.6523ZM67.8906 25.5508C67.8594 25.9336 67.8438 26.3164 67.8438 26.6992C67.8438 27.5664 67.8841 28.2214 67.9648 28.6641C67.9701 28.7005 67.9727 28.7305 67.9727 28.7539C67.9727 28.8581 67.9362 28.944 67.8633 29.0117C67.7904 29.0794 67.7057 29.1133 67.6094 29.1133C67.4479 29.1133 67.3294 28.9961 67.2539 28.7617C67.0664 28.8997 66.8711 29.0039 66.668 29.0742C66.4674 29.1445 66.2578 29.1797 66.0391 29.1797C65.5 29.1797 65.0534 29 64.6992 28.6406C64.3346 28.2734 64.1523 27.8021 64.1523 27.2266C64.1523 26.5312 64.3359 25.974 64.7031 25.5547C65.0729 25.1354 65.5521 24.9258 66.1406 24.9258C66.4427 24.9258 66.6758 24.9727 66.8398 25.0664L67.207 25.3359C67.2435 24.2396 67.2865 23.5013 67.3359 23.1211C67.3698 22.8893 67.4883 22.7734 67.6914 22.7734C67.9284 22.7734 68.0469 22.8997 68.0469 23.1523C68.0469 23.5143 67.9948 24.3138 67.8906 25.5508ZM66.1562 25.6523C65.7188 25.6523 65.3906 25.7826 65.1719 26.043C64.9531 26.3008 64.8438 26.6901 64.8438 27.2109C64.8438 27.5469 64.9622 27.8359 65.1992 28.0781C65.4388 28.3203 65.7188 28.4414 66.0391 28.4414C66.2578 28.4414 66.4427 28.401 66.5938 28.3203C66.6823 28.2734 66.8268 28.1654 67.0273 27.9961C67.0664 27.9622 67.1042 27.9219 67.1406 27.875L67.1289 27.1992L67.1328 26.7461L67.1406 26.2852C67.0417 26.0742 66.9102 25.9167 66.7461 25.8125C66.582 25.7057 66.3854 25.6523 66.1562 25.6523ZM70.8203 29.1797C70.2318 29.1797 69.7552 29.0326 69.3906 28.7383C68.9922 28.4128 68.793 27.957 68.793 27.3711C68.793 26.694 68.957 26.1263 69.2852 25.668C69.6419 25.168 70.1185 24.918 70.7148 24.918C71.1471 24.918 71.5 24.9909 71.7734 25.1367C72.1094 25.3164 72.2773 25.5924 72.2773 25.9648C72.2773 26.2253 72.1302 26.4622 71.8359 26.6758C71.7057 26.7695 71.4297 26.9154 71.0078 27.1133L69.5156 27.8203C69.6615 28.0365 69.8424 28.1992 70.0586 28.3086C70.2773 28.418 70.5312 28.4727 70.8203 28.4727C71 28.4727 71.2109 28.4388 71.4531 28.3711C71.7604 28.2852 71.9583 28.1732 72.0469 28.0352C72.1354 27.8945 72.2305 27.8242 72.332 27.8242C72.4232 27.8242 72.5039 27.8594 72.5742 27.9297C72.6471 27.9974 72.6836 28.0768 72.6836 28.168C72.6836 28.457 72.4505 28.7057 71.9844 28.9141C71.5859 29.0911 71.1979 29.1797 70.8203 29.1797ZM70.7148 25.6211C70.3971 25.6211 70.1328 25.7448 69.9219 25.9922C69.7109 26.237 69.5534 26.6068 69.4492 27.1016L70.6484 26.5312C71.1198 26.3021 71.4557 26.1029 71.6562 25.9336C71.4323 25.7253 71.1185 25.6211 70.7148 25.6211ZM75.1797 28.7969C75.1719 29.0365 75.0534 29.1562 74.8242 29.1562C74.6341 29.1562 74.4961 29.0443 74.4102 28.8203L73.8125 27.2344L73.1172 25.4414C73.0911 25.3737 73.0781 25.3138 73.0781 25.2617C73.0781 25.1549 73.1185 25.0638 73.1992 24.9883C73.2799 24.9128 73.3737 24.875 73.4805 24.875C73.6367 24.875 73.7487 24.9544 73.8164 25.1133L74.8086 27.8438C75.0039 27.4271 75.25 26.8229 75.5469 26.0312C75.6172 25.8229 75.7279 25.5286 75.8789 25.1484C75.9596 24.9818 76.0742 24.8984 76.2227 24.8984C76.3294 24.8984 76.4232 24.9362 76.5039 25.0117C76.5846 25.0872 76.625 25.1771 76.625 25.2812C76.625 25.3802 76.4102 25.9375 75.9805 26.9531L75.1797 28.7969ZM79.0938 29.1797C78.5052 29.1797 78.0286 29.0326 77.6641 28.7383C77.2656 28.4128 77.0664 27.957 77.0664 27.3711C77.0664 26.694 77.2305 26.1263 77.5586 25.668C77.9154 25.168 78.3919 24.918 78.9883 24.918C79.4206 24.918 79.7734 24.9909 80.0469 25.1367C80.3828 25.3164 80.5508 25.5924 80.5508 25.9648C80.5508 26.2253 80.4036 26.4622 80.1094 26.6758C79.9792 26.7695 79.7031 26.9154 79.2812 27.1133L77.7891 27.8203C77.9349 28.0365 78.1159 28.1992 78.332 28.3086C78.5508 28.418 78.8047 28.4727 79.0938 28.4727C79.2734 28.4727 79.4844 28.4388 79.7266 28.3711C80.0339 28.2852 80.2318 28.1732 80.3203 28.0352C80.4089 27.8945 80.5039 27.8242 80.6055 27.8242C80.6966 27.8242 80.7773 27.8594 80.8477 27.9297C80.9206 27.9974 80.957 28.0768 80.957 28.168C80.957 28.457 80.724 28.7057 80.2578 28.9141C79.8594 29.0911 79.4714 29.1797 79.0938 29.1797ZM78.9883 25.6211C78.6706 25.6211 78.4062 25.7448 78.1953 25.9922C77.9844 26.237 77.8268 26.6068 77.7227 27.1016L78.9219 26.5312C79.3932 26.3021 79.7292 26.1029 79.9297 25.9336C79.7057 25.7253 79.3919 25.6211 78.9883 25.6211ZM82.6445 25.9297L82.5859 27.8711C82.5859 28.0768 82.5755 28.3789 82.5547 28.7773C82.5286 29.0378 82.401 29.168 82.1719 29.168C81.9167 29.168 81.7891 29.0352 81.7891 28.7695C81.7891 28.4544 81.8034 27.9818 81.832 27.3516C81.8607 26.7188 81.875 26.2448 81.875 25.9297C81.875 25.5182 81.8815 25.0482 81.8945 24.5195C81.9076 23.9883 81.9141 23.5169 81.9141 23.1055C81.9141 22.8451 82.0417 22.7148 82.2969 22.7148C82.5547 22.7148 82.6836 22.8451 82.6836 23.1055C82.6836 23.5169 82.6771 23.9883 82.6641 24.5195C82.651 25.0482 82.6445 25.5182 82.6445 25.9297ZM85.3125 29.2305C84.875 29.2305 84.4987 29.069 84.1836 28.7461C83.832 28.3867 83.6471 27.9036 83.6289 27.2969C83.6133 26.7083 83.7617 26.1901 84.0742 25.7422C84.4388 25.2135 84.9466 24.9492 85.5977 24.9492C86.1185 24.9492 86.513 25.1875 86.7812 25.6641C86.9948 26.0495 87.0977 26.513 87.0898 27.0547C87.082 27.6328 86.931 28.1263 86.6367 28.5352C86.3034 28.9987 85.862 29.2305 85.3125 29.2305ZM85.5469 25.7422C85.1641 25.7396 84.8659 25.9219 84.6523 26.2891C84.4831 26.5833 84.3984 26.9193 84.3984 27.2969C84.3984 27.6745 84.5013 27.9688 84.707 28.1797C84.8789 28.3542 85.0807 28.4414 85.3125 28.4414C85.5833 28.4414 85.8164 28.3424 86.0117 28.1445C86.2331 27.9258 86.3503 27.6302 86.3633 27.2578C86.3997 26.25 86.1276 25.7448 85.5469 25.7422ZM89.7188 29.1367C89.4583 29.1367 89.1719 29.0951 88.8594 29.0117L88.8516 30.8789C88.8516 30.9935 88.8151 31.0872 88.7422 31.1602C88.6719 31.2331 88.5807 31.2695 88.4688 31.2695C88.3568 31.2695 88.2643 31.2331 88.1914 31.1602C88.1211 31.0872 88.0859 30.9935 88.0859 30.8789L88.0977 29.3164V27.7578C88.0898 27.1875 88.0703 26.668 88.0391 26.1992L87.9805 25.4062C87.9805 25.2214 88.0143 25.0651 88.082 24.9375C88.1602 24.7839 88.2734 24.707 88.4219 24.707C88.5234 24.707 88.6081 24.7435 88.6758 24.8164C88.7461 24.8867 88.7812 24.974 88.7812 25.0781C88.7812 25.1016 88.7773 25.1445 88.7695 25.207C88.7565 25.2878 88.7474 25.362 88.7422 25.4297C88.9661 25.276 89.1823 25.1615 89.3906 25.0859C89.599 25.0078 89.7982 24.9688 89.9883 24.9688C90.5221 24.9688 90.9128 25.2057 91.1602 25.6797C91.3555 26.0547 91.4531 26.5508 91.4531 27.168C91.4531 27.7305 91.3021 28.194 91 28.5586C90.6797 28.944 90.2526 29.1367 89.7188 29.1367ZM89.9883 25.75C89.7487 25.75 89.5326 25.8034 89.3398 25.9102C89.2018 25.9857 89.0273 26.1237 88.8164 26.3242C88.8503 26.9154 88.8672 27.5365 88.8672 28.1875C89.151 28.2969 89.4349 28.3516 89.7188 28.3516C90.0443 28.3516 90.293 28.2305 90.4648 27.9883C90.6133 27.7773 90.6875 27.5039 90.6875 27.168C90.6875 26.694 90.6289 26.3398 90.5117 26.1055C90.3971 25.8685 90.2227 25.75 89.9883 25.75ZM94.1641 29.1797C93.5755 29.1797 93.099 29.0326 92.7344 28.7383C92.3359 28.4128 92.1367 27.957 92.1367 27.3711C92.1367 26.694 92.3008 26.1263 92.6289 25.668C92.9857 25.168 93.4622 24.918 94.0586 24.918C94.4909 24.918 94.8438 24.9909 95.1172 25.1367C95.4531 25.3164 95.6211 25.5924 95.6211 25.9648C95.6211 26.2253 95.474 26.4622 95.1797 26.6758C95.0495 26.7695 94.7734 26.9154 94.3516 27.1133L92.8594 27.8203C93.0052 28.0365 93.1862 28.1992 93.4023 28.3086C93.6211 28.418 93.875 28.4727 94.1641 28.4727C94.3438 28.4727 94.5547 28.4388 94.7969 28.3711C95.1042 28.2852 95.3021 28.1732 95.3906 28.0352C95.4792 27.8945 95.5742 27.8242 95.6758 27.8242C95.7669 27.8242 95.8477 27.8594 95.918 27.9297C95.9909 27.9974 96.0273 28.0768 96.0273 28.168C96.0273 28.457 95.7943 28.7057 95.3281 28.9141C94.9297 29.0911 94.5417 29.1797 94.1641 29.1797ZM94.0586 25.6211C93.7409 25.6211 93.4766 25.7448 93.2656 25.9922C93.0547 26.237 92.8971 26.6068 92.793 27.1016L93.9922 26.5312C94.4635 26.3021 94.7995 26.1029 95 25.9336C94.776 25.7253 94.4622 25.6211 94.0586 25.6211ZM99.7617 26.1133C99.7435 26.4388 99.6133 26.6016 99.3711 26.6016C99.1471 26.6016 99.0352 26.4727 99.0352 26.2148C99.0352 26.1654 99.0312 26.0742 99.0234 25.9414L99.0117 25.6133C98.6003 25.6628 98.2708 25.7786 98.0234 25.9609C97.7917 26.1302 97.599 26.3854 97.4453 26.7266L97.4531 28.8672C97.4531 29.1302 97.3242 29.2617 97.0664 29.2617C96.8372 29.2617 96.7227 29.1302 96.7227 28.8672V26.125C96.7227 26.0391 96.7253 25.9102 96.7305 25.7383C96.7383 25.5664 96.7422 25.4375 96.7422 25.3516C96.7422 25.0885 96.8568 24.957 97.0859 24.957C97.3411 24.957 97.4701 25.1732 97.4727 25.6055C97.9727 25.1237 98.5273 24.8828 99.1367 24.8828C99.3477 24.8828 99.5052 24.9622 99.6094 25.1211C99.7135 25.2799 99.7656 25.5195 99.7656 25.8398C99.7656 25.9753 99.7643 26.0664 99.7617 26.1133Z" fill="#128091"/>
	<path d="M5.8916 19.1025C6.12858 19.276 6.42057 19.5448 6.76758 19.9087C7.17806 20.3361 7.45947 20.6154 7.61182 20.7466C7.76416 20.8778 7.84033 21.0216 7.84033 21.1782C7.84033 21.3348 7.7832 21.4723 7.66895 21.5908C7.55469 21.7093 7.42139 21.7686 7.26904 21.7686C7.15055 21.7686 7.03206 21.7241 6.91357 21.6353C6.7443 21.5125 6.38249 21.1613 5.82812 20.5815C5.40495 20.1372 4.99658 19.8389 4.60303 19.6865C4.28141 19.568 4.12061 19.3924 4.12061 19.1597C4.12061 18.9481 4.2666 18.7725 4.55859 18.6328C4.95215 18.4424 5.38379 18.0996 5.85352 17.6045C6.50944 16.9189 6.89876 16.5254 7.02148 16.4238C7.14844 16.318 7.27539 16.2651 7.40234 16.2651C7.55469 16.2651 7.68799 16.3244 7.80225 16.4429C7.92074 16.5571 7.97998 16.6925 7.97998 16.8491C7.97998 16.993 7.9165 17.1284 7.78955 17.2554C7.3833 17.687 6.75065 18.3027 5.8916 19.1025ZM10.0874 23.5713C9.93083 23.5713 9.79329 23.5184 9.6748 23.4126C9.55632 23.3068 9.49707 23.1756 9.49707 23.019C9.49707 22.9513 9.51188 22.8794 9.5415 22.8032C9.87158 21.8934 10.4937 20.5837 11.4077 18.874C12.3218 17.1602 12.946 15.8462 13.2803 14.9321C13.8346 13.4172 14.2536 12.666 14.5371 12.6787C14.6937 12.6829 14.8312 12.7401 14.9497 12.8501C15.0682 12.9559 15.1274 13.085 15.1274 13.2373C15.1274 13.3346 15.1042 13.451 15.0576 13.5864L14.3467 15.313C14.0632 16.0959 13.659 16.9993 13.1343 18.0234L11.7505 20.6514L10.6016 23.1968C10.4873 23.4465 10.3159 23.5713 10.0874 23.5713ZM20.2881 18.7915C20.2881 18.9438 20.2098 19.0941 20.0532 19.2422C19.0461 20.1774 17.9902 20.9984 16.8857 21.7051C16.7673 21.7812 16.6551 21.8193 16.5493 21.8193C16.397 21.8193 16.2637 21.7601 16.1494 21.6416C16.0394 21.5189 15.9844 21.3813 15.9844 21.229C15.9844 21.0597 16.0669 20.9116 16.2319 20.7847L18.6948 18.9058C18.3182 18.6561 17.8527 18.2731 17.2983 17.7568C16.6213 17.1178 16.2827 16.6756 16.2827 16.4302C16.2827 16.2778 16.342 16.1445 16.4604 16.0303C16.5789 15.916 16.7144 15.8589 16.8667 15.8589C17.0233 15.8589 17.165 15.9308 17.292 16.0747C18.2568 17.1538 19.1307 17.8965 19.9136 18.3027C20.1632 18.4297 20.2881 18.5926 20.2881 18.7915Z" fill="black"/>
	</svg>
	